<?xml version="1.0" encoding="utf-8"?>
<!-- Generator: Adobe Illustrator 27.5.0, SVG Export Plug-In . SVG Version: 6.00 Build 0)  -->
<svg version="1.1" id="Calque_1" xmlns="http://www.w3.org/2000/svg" xmlns:xlink="http://www.w3.org/1999/xlink" x="0px" y="0px"
	 viewBox="0 0 149.01 168.55" style="enable-background:new 0 0 149.01 168.55;" xml:space="preserve">
<style type="text/css">
	
		.st0{opacity:0.25;clip-path:url(#SVGID_00000043437216225638209160000002926727204870263223_);fill-rule:evenodd;clip-rule:evenodd;fill:#71C1A5;}
	.st1{clip-path:url(#SVGID_00000043437216225638209160000002926727204870263223_);}
	.st2{fill:#020203;}
	.st3{fill:#D3AA83;}
	.st4{fill:#DDBD9C;}
	.st5{fill:#3E693E;}
	.st6{fill:#2D4F2E;}
	.st7{fill:#EDEBEE;}
	.st8{fill:#303031;}
	.st9{fill:#CFD0D1;}
	.st10{fill:#BABBBD;}
	.st11{fill:#E6E5E4;}
	.st12{fill:#405C7D;}
	.st13{fill:#486A86;}
	.st14{fill:#8593AA;}
	.st15{fill:#DEDBDB;}
</style>
<g>
	<defs>
		<path id="SVGID_1_" d="M98.6,168.55c8.64-7.52,16.71-15.54,22.87-22.47c20.43-22.99,32.2-46.76,25.78-68.11
			C138.24,47.97,87.41,19.07,39.59,0C13.67,43.41-8.47,96.4,3.19,125.53c8.31,20.72,32.57,32.6,63.19,38.73
			C75.61,166.11,87.04,167.7,98.6,168.55"/>
	</defs>
	<clipPath id="SVGID_00000098184166290504425530000008774593045132155277_">
		<use xlink:href="#SVGID_1_"  style="overflow:visible;"/>
	</clipPath>
	
		<rect x="-47.6" style="opacity:0.25;clip-path:url(#SVGID_00000098184166290504425530000008774593045132155277_);fill-rule:evenodd;clip-rule:evenodd;fill:#71C1A5;" width="271.76" height="207.72"/>
	<g id="XMLID_2120_" style="clip-path:url(#SVGID_00000098184166290504425530000008774593045132155277_);">
		<g id="XMLID_104_">
			<g id="XMLID_190_">
				<path id="XMLID_208_" class="st2" d="M82.27,61.06c-19.04,0-34.48,2.27-34.48,5.08c0,2.81,15.44,5.08,34.48,5.08
					c19.05,0,34.48-2.27,34.48-5.08C116.75,63.33,101.31,61.06,82.27,61.06z"/>
				<path id="XMLID_207_" class="st2" d="M52.67,61.38c-7.48,23.47-8.33,45.44-3.2,50.35h33.39V42.64h-0.59
					C82.27,42.64,60.14,37.91,52.67,61.38z"/>
				<path id="XMLID_206_" class="st2" d="M82.86,42.64h-0.59v69.09h33.4c5.13-4.91,4.23-25.82-3.25-49.29
					C104.94,38.97,82.86,42.64,82.86,42.64z"/>
				<path id="XMLID_205_" class="st3" d="M51.59,82.37c2.21,6.88,6.74,6.29,6.74,6.29L55.2,74.6C55.2,74.6,49.38,75.5,51.59,82.37z"
					/>
				<path id="XMLID_204_" class="st3" d="M110.91,74.64l-3.07,13.78c0,0,4.45,0.57,6.61-6.16
					C116.62,75.52,110.91,74.64,110.91,74.64z"/>
				<rect id="XMLID_203_" x="77.76" y="105.59" class="st3" width="10.43" height="10.42"/>
				<path id="XMLID_202_" class="st4" d="M82.86,42.64c-15.75,0-28.52,12.75-28.52,28.48c0,15.73,7.95,39.68,28.52,39.68
					c19.96,0,28.52-23.95,28.52-39.68C111.38,55.4,98.61,42.64,82.86,42.64z"/>
				<path id="XMLID_201_" class="st2" d="M112.58,62.97c0,0-2.76-4.15-6.29-5.22c-16.33-4.94-23.91-6.4-23.92-4.06
					c0,0,31.4,36.48,16.34,64.11l16.96-6.08c0,0,6.48-5.65,1.55-30.19C112.27,57.01,112.58,62.97,112.58,62.97z"/>
				<path id="XMLID_200_" class="st3" d="M54.34,71.13c0,15.73,3.44,39.68,28.52,39.68V42.64C67.11,42.64,54.34,55.4,54.34,71.13z"
					/>
				<path id="XMLID_199_" class="st4" d="M90.57,115.76h-7.51v16.15h29.64C112.7,118.64,90.57,115.76,90.57,115.76z"/>
				<path id="XMLID_198_" class="st3" d="M82.27,115.46v9.99c0.68,0.58,0.68,0.78,0.68,0.78l0.68-0.68l-0.19-10.09H82.27z"/>
				<path id="XMLID_197_" class="st4" d="M82.97,115.47l0.01,10.76c0,0,13.4-2.56,13.4-8.93C96.38,117.29,93.05,115.24,82.97,115.47
					z"/>
				<path id="XMLID_196_" class="st3" d="M69.55,117.29c0,6.37,13.4,8.93,13.4,8.93l0.01-10.76
					C72.88,115.24,69.55,117.29,69.55,117.29z"/>
				<path id="XMLID_195_" class="st2" d="M53.54,63.33c-0.44,4.23,0.8,11.49,0.8,11.49l11.79-13.76
					C66.13,61.06,53.97,59.1,53.54,63.33z"/>
				<path id="XMLID_194_" class="st5" d="M82.06,37.06v23.88l28.64,0.9C110.7,61.84,112.61,37.06,82.06,37.06z"/>
				<path id="XMLID_193_" class="st6" d="M54.34,61.84l28.64-0.9V37.06C51.32,37.06,54.34,61.84,54.34,61.84z"/>
				<path id="XMLID_192_" class="st5" d="M82.86,52.41v11.58c10.45-0.04,22.23,0.49,33.89,2.15
					C116.75,66.14,122.66,53.48,82.86,52.41z"/>
				<path id="XMLID_191_" class="st5" d="M47.79,66.14c0,0,15.52-2.09,35.5-2.15V52.41C83.28,52.41,45.41,52.41,47.79,66.14z"/>
			</g>
			<g id="XMLID_130_">
				<g id="XMLID_187_">
					<polygon id="XMLID_189_" class="st3" points="75.18,292.38 63.35,292.38 62.58,198.27 75.18,198.27 					"/>
					<path id="XMLID_188_" class="st3" d="M76.02,293.83c0,3.01,0,5.44-5.43,5.44H52.89c-3.01,0-5.44-1.69-5.44-4.69l0,0
						c-0.02-1.54,1.02-3.92,5.37-5.23l18.21-3.85C74.04,285.49,76.02,290.82,76.02,293.83L76.02,293.83z"/>
				</g>
				<rect id="XMLID_186_" x="62.68" y="281.7" class="st7" width="13.27" height="11.45"/>
				<g id="XMLID_184_">
					<path id="XMLID_185_" class="st8" d="M76.29,294.2v4.17H45.58V295c-0.02-1.66,1.1-4.22,5.77-5.63c0,0,6.75-2.08,8.45-3.29
						c1.42-1.01,3.16-2.21,4.8-1.04c1.45,1.04,1.3,2.79,0.3,4.1c-0.22,0.28,0.4,1.11,0.56,1.27c1.1,1.17,3.04,1.31,4.53,1.32
						c0.7,0.01,1.41-0.03,2.11-0.1c0.54-0.05,1.06-0.15,1.59-0.25c0.43-0.08,0.75-0.24,1.16-0.38c0.48-0.15,1.44-0.38,1.44,0.41
						V294.2z"/>
				</g>
				<rect id="XMLID_183_" x="45.44" y="297.93" class="st9" width="30.99" height="2.11"/>
				<path id="XMLID_182_" class="st8" d="M55.26,293.53c2.97-0.49,5.82-1.67,8.3-3.38c0.46-0.32,0.91-0.66,1.34-1.01
					c1.01-1.32,1.16-3.07-0.3-4.1c-1.64-1.17-3.39,0.03-4.8,1.04c-1.7,1.22-8.45,3.29-8.45,3.29c-0.44,0.14-0.85,0.28-1.23,0.43
					c-0.28,0.14-1.41,0.85-1.05,2.58C49.47,294.29,54.24,293.7,55.26,293.53z"/>
				<g id="XMLID_146_">
					<path id="XMLID_181_" class="st10" d="M51.66,289.28c0.53,0.63,1.63,2.15,2.23,4.41c0.6-0.05,1.11-0.12,1.36-0.16
						c0.06-0.01,0.13-0.03,0.19-0.04c-0.55-2.19-1.52-3.79-2.21-4.73C52.55,288.99,51.98,289.17,51.66,289.28z"/>
					<path id="XMLID_180_" class="st10" d="M54.67,288.27c0.57,0.68,1.79,2.36,2.35,4.87c0.5-0.14,1-0.28,1.49-0.45
						c-0.54-2.33-1.58-4.03-2.3-4.98C55.7,287.91,55.18,288.1,54.67,288.27z"/>
					<path id="XMLID_179_" class="st10" d="M57.67,287.14c0.66,0.86,1.75,2.59,2.21,5.03c0.49-0.21,0.97-0.44,1.45-0.69
						c-0.5-2.29-1.48-4-2.21-5C58.71,286.7,58.21,286.92,57.67,287.14z"/>
				</g>
				<g id="XMLID_140_">
					<rect id="XMLID_142_" x="90.21" y="197.3" class="st4" width="12.61" height="95.09"/>
					<path id="XMLID_141_" class="st4" d="M89.37,293.83c0,3.01,0,5.44,5.44,5.44h17.69c3,0,5.44-1.69,5.44-4.69l0,0
						c0.02-1.54-1.03-3.92-5.37-5.23l-18.21-3.85C91.35,285.49,89.37,290.82,89.37,293.83L89.37,293.83z"/>
				</g>
				<rect id="XMLID_139_" x="89.74" y="281.7" class="st7" width="13.27" height="11.45"/>
				<g id="XMLID_137_">
					<path id="XMLID_138_" class="st8" d="M89.11,294.2v4.17h30.71V295c0.02-1.66-1.1-4.22-5.78-5.63c0,0-6.74-2.08-8.45-3.29
						c-1.41-1.01-3.17-2.21-4.8-1.04c-1.45,1.04-1.31,2.79-0.3,4.1c0.22,0.28-0.4,1.11-0.56,1.27c-1.1,1.17-3.04,1.31-4.53,1.32
						c-0.71,0.01-1.41-0.03-2.11-0.1c-0.54-0.05-1.07-0.15-1.59-0.25c-0.43-0.08-0.75-0.24-1.16-0.38
						c-0.48-0.15-1.44-0.38-1.44,0.41V294.2z"/>
				</g>
				<rect id="XMLID_136_" x="88.97" y="297.93" class="st11" width="30.98" height="2.11"/>
				<path id="XMLID_135_" class="st8" d="M110.14,293.53c-2.97-0.49-5.83-1.67-8.31-3.38c-0.46-0.32-0.91-0.66-1.35-1.01
					c-1.01-1.32-1.15-3.07,0.3-4.1c1.63-1.17,3.39,0.03,4.8,1.04c1.7,1.22,8.45,3.29,8.45,3.29c0.45,0.14,0.85,0.28,1.23,0.43
					c0.28,0.14,1.41,0.85,1.05,2.58C115.92,294.29,111.16,293.7,110.14,293.53z"/>
				<g id="XMLID_131_">
					<path id="XMLID_134_" class="st11" d="M113.73,289.28c-0.52,0.63-1.63,2.15-2.23,4.41c-0.6-0.05-1.1-0.12-1.36-0.16
						c-0.07-0.01-0.13-0.03-0.19-0.04c0.55-2.19,1.52-3.79,2.21-4.73C112.85,288.99,113.41,289.17,113.73,289.28z"/>
					<path id="XMLID_133_" class="st11" d="M110.72,288.27c-0.56,0.68-1.78,2.36-2.35,4.87c-0.5-0.14-1-0.28-1.49-0.45
						c0.54-2.33,1.58-4.03,2.3-4.98C109.69,287.91,110.22,288.1,110.72,288.27z"/>
					<path id="XMLID_132_" class="st11" d="M107.73,287.14c-0.66,0.86-1.75,2.59-2.21,5.03c-0.49-0.21-0.98-0.44-1.45-0.69
						c0.5-2.29,1.48-4,2.21-5C106.69,286.7,107.18,286.92,107.73,287.14z"/>
				</g>
			</g>
			<g id="XMLID_125_">
				<polygon id="XMLID_129_" class="st12" points="77.01,210.97 59.73,210.97 57.29,185.84 82.77,185.84 82.77,210.97 				"/>
				<polygon id="XMLID_128_" class="st13" points="108.29,185.84 105.86,210.97 82.49,210.97 82.76,185.71 				"/>
				<polygon id="XMLID_127_" class="st13" points="62.58,185.6 57.86,191.68 59.49,193.19 65.48,185.84 				"/>
				<polygon id="XMLID_126_" class="st14" points="102.75,185.6 107.47,191.68 105.83,193.19 99.84,185.84 				"/>
			</g>
			<g id="XMLID_105_">
				<path id="XMLID_124_" class="st3" d="M75.26,115.76h7.51v16.15H53.13C53.13,118.64,75.26,115.76,75.26,115.76z"/>
				<path id="XMLID_123_" class="st4" d="M106.85,145.68c7.71,17.92,7.59,50.14,7.59,50.14h7.81c0-58.05-11.13-69.58-11.13-69.58
					l-27.66-10.44l-0.09,29.36l0,0L106.85,145.68z"/>
				<g id="XMLID_118_">
					<g id="XMLID_119_">
						<path id="XMLID_122_" class="st4" d="M113.54,204.26c0,2.97,2.36,5.38,5.27,5.38l0,0c2.91,0,5.27-2.41,5.27-5.38v-4.6
							c0-2.97-2.36-5.38-5.27-5.38l0,0c-2.91,0-5.27,2.41-5.27,5.38V204.26z"/>
						<path id="XMLID_121_" class="st4" d="M109.88,201.71c-0.3,0.83,0.13,1.74,0.96,2.03l0,0c0.83,0.3,1.74-0.14,2.03-0.97
							l0.89-2.37c0.3-0.83-0.14-1.74-0.97-2.03l0,0c-0.83-0.29-1.74,0.14-2.03,0.97L109.88,201.71z"/>
						<path id="XMLID_120_" class="st4" d="M110.85,199.15c0,0,2.29-4.96,7.69-4.85v6.03h-4.83L110.85,199.15z"/>
					</g>
				</g>
				<g id="XMLID_113_">
					<g id="XMLID_114_">
						<path id="XMLID_117_" class="st3" d="M53.13,204.25c0,2.97-2.36,5.38-5.26,5.38l0,0c-2.91,0-5.27-2.41-5.27-5.38v-4.61
							c0-2.97,2.36-5.38,5.27-5.38l0,0c2.91,0,5.26,2.4,5.26,5.38V204.25z"/>
						<path id="XMLID_116_" class="st3" d="M56.81,201.69c0.29,0.83-0.14,1.74-0.96,2.03l0,0c-0.83,0.29-1.74-0.14-2.03-0.97
							l-0.89-2.36c-0.29-0.83,0.14-1.74,0.97-2.03l0,0c0.82-0.3,1.73,0.14,2.03,0.96L56.81,201.69z"/>
						<path id="XMLID_115_" class="st3" d="M55.83,199.13c0,0-2.29-4.96-7.68-4.85v6.03h4.83L55.83,199.13z"/>
					</g>
				</g>
				<path id="XMLID_112_" class="st3" d="M59.58,145.68c-7.7,17.92-7.6,50.14-7.6,50.14h-7.81c0-58.05,10.69-69.85,10.69-69.85
					l28.1-10.16l0.09,29.36l0,0L59.58,145.68z"/>
				<path id="XMLID_111_" class="st15" d="M82.9,112.95h-7.73c0,12.9,7.75,13.27,7.75,13.27L82.9,112.95z"/>
				<path id="XMLID_110_" class="st7" d="M82.92,126.23c0,0,7.75-0.38,7.75-13.27h-7.73L82.92,126.23z"/>
				<path id="XMLID_109_" class="st15" d="M74.98,116.18c0,0-16.48,9.61-17.09,30.44c-0.62,20.83-2.36,41.71-2.36,41.71h27.39
					l-0.24-70.52L74.98,116.18z"/>
				<path id="XMLID_108_" class="st7" d="M89.98,116.18c0,0,17.25,9.61,17.88,30.44c0.62,20.83,2.36,41.71,2.36,41.71H82.82
					l-0.14-70.52L89.98,116.18z"/>
				<polygon id="XMLID_107_" class="st8" points="42.6,188.21 53.55,188.21 53.13,191.7 42.6,191.7 				"/>
				<path id="XMLID_106_" class="st7" d="M49.48,189.88c0,1.81-1.47,3.27-3.27,3.27c-1.81,0-3.27-1.46-3.27-3.27
					c0-1.81,1.46-3.27,3.27-3.27C48.02,186.61,49.48,188.07,49.48,189.88z"/>
			</g>
		</g>
	</g>
</g>
</svg>
