<?xml version="1.0" encoding="UTF-8"?>
<svg id="Layer_1" data-name="Layer 1" xmlns="http://www.w3.org/2000/svg" xmlns:xlink="http://www.w3.org/1999/xlink" viewBox="0 0 553.68 536.82">
  <defs>
    <style>
      .cls-1 {
        fill: url(#Dégradé_sans_nom_41);
      }

      .cls-2 {
        opacity: .5;
      }

      .cls-2, .cls-3, .cls-4, .cls-5 {
        fill-rule: evenodd;
      }

      .cls-2, .cls-4 {
        fill: #71c1a5;
      }

      .cls-3 {
        fill: #ededed;
        opacity: .84;
      }

      .cls-5 {
        fill: #44af87;
      }
    </style>
    <radialGradient id="Dégradé_sans_nom_41" data-name="Dégradé sans nom 41" cx="277.16" cy="239.18" fx="357.34" fy="249.84" r="80.88" gradientTransform="translate(0 -110.52) scale(1 1.46)" gradientUnits="userSpaceOnUse">
      <stop offset=".21" stop-color="#858584"/>
      <stop offset="1" stop-color="#adc6b8"/>
    </radialGradient>
  </defs>
  <path class="cls-3" d="m276.84,525.62c87.83,0,159.02,2.51,159.02,5.6s-71.2,5.6-159.02,5.6-159.02-2.51-159.02-5.6,71.2-5.6,159.02-5.6"/>
  <g id="Layer_2" data-name="Layer 2">
    <path class="cls-2" d="m220.13,96.09l16.6-8.52c5.35-2.75,9.77-6.57,12.92-11.72,6.77-11.08,7.99-30.95,6.97-47.64-.04-.71-.8-1.15-1.44-.83-14.96,7.47-31.55,18.48-37.74,29.89-4.54,8.36-4.54,17.66-2.12,26.66,1.02,3.79,2.76,8.41,4.81,12.18M139.36.55c-.65-.31-1.4.14-1.43.86-.75,16.71.79,36.56,7.73,47.52,5.09,8.03,13.22,12.56,22.25,14.83,2.51.63,5.5,1.16,8.47,1.47.44.04.86-.21,1.03-.61,1.14-2.76,2.08-5.64,2.71-8.16,2.28-9.03,2.13-18.34-2.54-26.62-6.37-11.3-23.13-22.05-38.21-29.28Zm-36.8,114.93c-.6.39-.6,1.27,0,1.67,13.95,9.23,31.77,18.11,44.74,17.79,9.49-.24,17.58-4.9,24.15-11.47,1.83-1.83,3.82-4.12,5.61-6.51.26-.35.26-.84,0-1.2-1.78-2.4-3.77-4.68-5.6-6.52-6.58-6.6-14.64-11.25-24.15-11.5-12.97-.34-30.8,8.52-44.75,17.74Z"/>
    <path class="cls-4" d="m452.37,362.51c-14.12-9.53-32.63-18.96-45.99-18.62-9.49.24-17.58,4.9-24.15,11.47-1.83,1.83-3.83,4.12-5.61,6.51-.26.35-.26.84,0,1.2,1.78,2.4,3.77,4.68,5.6,6.52,6.58,6.6,14.64,11.25,24.15,11.5,13.36.35,31.88-9.06,46-18.58"/>
    <path class="cls-2" d="m333.54,382.74l-16.6,8.53c-5.35,2.75-9.77,6.57-12.92,11.72-6.77,11.08-7.99,30.95-6.97,47.65.04.71.8,1.15,1.44.83,14.96-7.47,31.55-18.48,37.74-29.89,4.54-8.36,4.54-17.66,2.12-26.66-1.02-3.79-2.76-8.41-4.81-12.18"/>
    <path class="cls-4" d="m376.56,413.54c-1.27,2.96-2.31,6.12-3,8.84-2.28,9.03-2.13,18.34,2.54,26.62,6.37,11.3,23.13,22.05,38.21,29.28.65.31,1.4-.14,1.43-.86.75-16.71-.79-36.56-7.73-47.52-5.09-8.03-13.22-12.56-22.25-14.83-2.72-.68-5.99-1.25-9.2-1.54"/>
    <path class="cls-2" d="m295.68,25.85c-1.19,16.99-.1,37.74,6.87,49.14,4.96,8.11,13.01,12.77,22.01,15.18,2.5.67,5.48,1.25,8.44,1.6.44.05.86-.19,1.04-.6,1.18-2.74,2.17-5.61,2.84-8.11,2.42-9,2.42-18.3-2.12-26.66-6.38-11.75-23.79-23.08-39.09-30.55"/>
    <path class="cls-5" d="m450.84,115.43c-14.12-9.5-32.6-18.89-45.95-18.54-9.48.25-17.59,4.92-24.14,11.5-2.56,2.57-5.43,6.02-7.61,9.42-.3.46-.15,1.08.31,1.37l14.85,9.58c5.05,3.26,10.57,5.17,16.61,5.33,7.37.18,15.57-2.51,22.26-5.39,8.24-3.55,16.23-8.22,23.67-13.27"/>
    <path class="cls-4" d="m377.77,65.99c3.2-.38,6.46-1.05,9.16-1.82,8.96-2.54,16.95-7.33,21.79-15.51,6.6-11.17,7.53-31.06,6.25-47.74-.05-.71-.82-1.14-1.46-.81-14.85,7.7-31.27,18.96-37.29,30.46-4.41,8.42-4.27,17.73-1.71,26.68.77,2.7,1.91,5.82,3.27,8.74"/>
    <path class="cls-4" d="m258,452.98c1.19-16.88.15-37.67-6.87-49.14-4.96-8.11-13.01-12.77-22.01-15.18-2.5-.67-5.48-1.25-8.45-1.6-.44-.05-.86.19-1.04.6-1.18,2.74-2.17,5.61-2.84,8.11-2.42,9-2.42,18.3,2.12,26.66,6.38,11.75,23.79,23.08,39.09,30.55"/>
    <path class="cls-2" d="m181.07,360.19l-15.68-10.12c-5.06-3.26-10.57-5.17-16.61-5.33-12.98-.32-30.8,8.55-44.75,17.79-.6.4-.6,1.27,0,1.67,13.95,9.22,31.78,18.08,44.75,17.74,9.48-.25,17.59-4.92,24.14-11.5,2.77-2.78,5.91-6.6,8.14-10.25"/>
    <path class="cls-4" d="m138.84,479.4c15.19-7.71,32.42-19.3,38.63-31.14,4.41-8.42,4.27-17.72,1.72-26.67-.71-2.49-1.74-5.35-2.96-8.07-.18-.4-.61-.64-1.05-.58-2.96.39-5.93,1.02-8.42,1.73-8.96,2.54-16.95,7.33-21.79,15.51-6.84,11.58-7.57,32.37-6.13,49.23"/>
    <path class="cls-2" d="m471.21,148.95c-15.21,7.42-32.69,18.71-39.12,30.52-4.55,8.35-4.55,17.65-2.14,26.65.67,2.5,1.66,5.37,2.83,8.11.17.41.6.65,1.04.6,2.97-.35,5.94-.93,8.45-1.59,8.97-2.39,17.08-7.08,22.03-15.16,6.98-11.4,8.09-32.14,6.91-49.13"/>
    <path class="cls-2" d="m429.31,261.97l-.92,18.64c-.3,6.01.8,11.74,3.69,17.05,6.21,11.4,22.81,22.4,37.78,29.86.64.32,1.4-.12,1.44-.83,1.01-16.69-.23-36.56-7.01-47.63-4.97-8.11-13.03-12.76-22.03-15.16-3.79-1.01-8.67-1.82-12.95-1.92"/>
    <path class="cls-4" d="m553.68,238.94c-14.27-9.3-32.93-18.43-46.29-17.88-9.47.39-17.5,5.19-23.96,11.85-1.8,1.86-3.76,4.18-5.5,6.6-.26.36-.25.85.02,1.2,1.82,2.37,3.85,4.62,5.71,6.43,6.68,6.49,14.81,11.01,24.33,11.11,13.37.14,31.73-9.57,45.7-19.31"/>
    <path class="cls-4" d="m82.6,329.81c15.28-7.46,32.62-18.75,38.99-30.45,4.55-8.35,4.55-17.65,2.14-26.65-.67-2.5-1.66-5.37-2.83-8.11-.17-.41-.6-.65-1.04-.6-2.97.35-5.94.93-8.45,1.59-8.97,2.39-17.08,7.08-22.03,15.16-7.39,12.06-8.04,32.08-6.78,49.06"/>
    <path class="cls-4" d="m124.36,216.86l.92-18.64c.3-6.01-.8-11.74-3.69-17.05-6.21-11.4-22.81-22.4-37.78-29.86-.64-.32-1.4.12-1.44.83-1.01,16.69.23,36.56,7.01,47.63,4.97,8.11,13.03,12.76,22.03,15.16,3.79,1.01,8.67,1.82,12.95,1.92"/>
    <path class="cls-5" d="m0,239.9c14.27,9.3,32.93,18.43,46.28,17.88,9.47-.39,17.5-5.19,23.96-11.85,1.8-1.86,3.76-4.18,5.5-6.6.26-.36.25-.85-.02-1.2-1.82-2.37-3.85-4.62-5.71-6.43-6.68-6.49-14.81-11.01-24.33-11.11-13.37-.14-31.73,9.57-45.7,19.31"/>
    <path class="cls-4" d="m367.3,367.34c-7.46-15.31-18.78-32.73-30.52-39.13-8.34-4.54-17.67-4.55-26.65-2.14-2.5.67-5.37,1.66-8.12,2.84-.41.17-.65.6-.6,1.04.35,2.97.93,5.94,1.59,8.45,2.4,9,7.05,17.06,15.16,22.03,11.4,6.99,32.14,8.09,49.13,6.92"/>
    <path class="cls-5" d="m254.28,325.45l-18.64-.92c-6.01-.3-11.74.8-17.05,3.69-11.4,6.21-22.4,22.81-29.86,37.78-.32.64.12,1.4.83,1.44,16.69,1.01,36.56-.23,47.63-7.01,8.11-4.97,12.76-13.03,15.16-22.03,1.01-3.79,1.82-8.67,1.92-12.95"/>
    <path class="cls-4" d="m276.14,357.02c-2.58,1.93-5.06,4.14-7.02,6.16-6.49,6.68-11.01,14.81-11.11,24.33-.13,12.98,9.01,30.66,18.45,44.47.4.59,1.28.58,1.67-.03,9.01-14.09,17.6-32.05,17.07-45.02-.39-9.5-5.17-17.49-11.86-23.96-2.02-1.95-4.56-4.08-7.2-5.93"/>
    <path class="cls-2" d="m367.3,111.01c-7.46,15.31-18.78,32.73-30.52,39.12-8.34,4.54-17.67,4.55-26.65,2.14-2.5-.67-5.37-1.65-8.12-2.83-.41-.17-.65-.6-.6-1.04.35-2.97.93-5.94,1.59-8.45,2.4-9,7.05-17.06,15.16-22.03,11.4-6.99,32.14-8.09,49.13-6.92"/>
    <path class="cls-4" d="m254.28,152.9l-18.64.92c-6.01.3-11.74-.8-17.05-3.69-11.4-6.21-22.4-22.81-29.86-37.78-.32-.64.12-1.4.83-1.44,16.69-1.01,36.56.23,47.63,7.01,8.11,4.97,12.76,13.03,15.16,22.03,1.01,3.79,1.82,8.67,1.92,12.95"/>
    <path class="cls-4" d="m276.14,121.34c-2.58-1.93-5.06-4.14-7.02-6.16-6.49-6.68-11.01-14.81-11.11-24.33-.13-12.98,9.01-30.66,18.45-44.47.4-.59,1.28-.58,1.67.03,9.01,14.09,17.6,32.05,17.07,45.02-.39,9.5-5.17,17.49-11.86,23.96-2.02,1.95-4.56,4.08-7.2,5.93"/>
    <path class="cls-4" d="m157.83,328.79c15.31-7.46,32.73-18.78,39.12-30.52,4.54-8.34,4.55-17.67,2.14-26.65-.67-2.5-1.66-5.37-2.84-8.12-.17-.41-.6-.65-1.04-.6-2.97.35-5.94.93-8.45,1.59-9,2.4-17.06,7.05-22.03,15.16-6.99,11.4-8.09,32.14-6.91,49.13"/>
    <path class="cls-4" d="m199.72,215.77l.92-18.64c.3-6.01-.8-11.74-3.69-17.05-6.21-11.4-22.81-22.4-37.78-29.86-.64-.32-1.4.12-1.44.83-1.01,16.69.23,36.56,7.01,47.63,4.97,8.11,13.03,12.76,22.03,15.16,3.79,1.01,8.67,1.82,12.95,1.92"/>
    <path class="cls-2" d="m168.15,237.63c-1.93-2.58-4.14-5.06-6.16-7.02-6.68-6.49-14.81-11.01-24.33-11.11-12.98-.13-30.66,9.01-44.46,18.45-.59.4-.58,1.28.03,1.67,14.09,9.01,32.05,17.6,45.02,17.07,9.5-.39,17.49-5.17,23.96-11.86,1.95-2.02,4.08-4.56,5.93-7.2"/>
    <path class="cls-4" d="m397.55,328.79c-15.31-7.46-32.73-18.78-39.12-30.52-4.54-8.34-4.55-17.67-2.14-26.65.67-2.5,1.66-5.37,2.84-8.12.17-.41.6-.65,1.04-.6,2.97.35,5.94.93,8.45,1.59,9,2.4,17.06,7.05,22.03,15.16,6.99,11.4,8.09,32.14,6.92,49.13"/>
    <path class="cls-2" d="m355.65,215.77l-.92-18.64c-.3-6.01.8-11.74,3.69-17.05,6.21-11.4,22.81-22.4,37.78-29.86.64-.32,1.4.12,1.44.83,1.01,16.69-.23,36.56-7.01,47.63-4.97,8.11-13.03,12.76-22.03,15.16-3.79,1.01-8.67,1.82-12.95,1.92"/>
    <path class="cls-4" d="m387.22,237.63c1.93-2.58,4.14-5.06,6.16-7.02,6.68-6.49,14.81-11.01,24.33-11.11,12.98-.13,30.66,9.01,44.47,18.45.59.4.58,1.28-.03,1.67-14.09,9.01-32.05,17.6-45.02,17.07-9.5-.39-17.49-5.17-23.96-11.86-1.95-2.02-4.08-4.56-5.93-7.2"/>
  </g>
  <path class="cls-1" d="m270.42,258.17h29.1v15.75c-.76.51-1.77,1.08-3.1,1.68-4.55,1.99-10.23,3.01-16.9,3.01-5.14,0-9.5-1.24-13.35-3.8-3.89-2.58-6.83-6.2-8.98-11.06-2.31-5.21-3.48-11.41-3.48-18.42v-12.81c0-11.03,2.33-19.47,6.93-25.07,4.3-5.24,9.85-7.69,17.46-7.69,6.36,0,11.21,1.41,14.82,4.3,3.48,2.78,5.65,6.99,6.64,12.87l1.19,7.09h26.01l-1.24-9.59c-1.57-12.11-6.65-21.84-15.11-28.91-8.34-6.97-19.23-10.5-32.39-10.5-15.31,0-27.75,5.38-36.99,15.98-8.94,10.26-13.48,24.12-13.48,41.2v13.74c.06,10.87,2.2,20.72,6.36,29.28,4.32,8.88,10.55,15.87,18.51,20.78,7.93,4.89,17.04,7.37,27.08,7.37,9.37,0,18.02-1.46,25.71-4.33,8.38-3.13,14.73-7.72,18.9-13.64l1.55-2.2v-49.74h-55.25v24.74Z"/>
</svg>