<?xml version="1.0" encoding="utf-8"?>
<!-- Generator: Adobe Illustrator 27.5.0, SVG Export Plug-In . SVG Version: 6.00 Build 0)  -->
<svg version="1.1" id="Calque_1" xmlns="http://www.w3.org/2000/svg" xmlns:xlink="http://www.w3.org/1999/xlink" x="0px" y="0px"
	 viewBox="0 0 149.01 168.55" style="enable-background:new 0 0 149.01 168.55;" xml:space="preserve">
<style type="text/css">
	
		.st0{opacity:0.25;clip-path:url(#SVGID_00000091011339232780324230000006674332051684268442_);fill-rule:evenodd;clip-rule:evenodd;fill:#71C1A5;}
	.st1{clip-path:url(#SVGID_00000091011339232780324230000006674332051684268442_);}
	.st2{fill:none;}
	.st3{fill:#E1AD82;}
	.st4{fill:#E8BB9B;}
	.st5{fill:#A3A1A2;}
	.st6{fill:#848383;}
	.st7{fill:#ECEBEE;}
	.st8{fill:#020203;}
	.st9{fill:#F8F8F7;}
	.st10{fill:#110E0E;}
	.st11{fill:#202025;}
	.st12{fill:#D1D0D8;}
	.st13{fill:#303031;}
	.st14{fill:#935F28;}
	.st15{fill:#D29363;}
	.st16{fill:#482E19;}
	.st17{fill:#633F21;}
	.st18{fill:#4E3523;}
	.st19{fill:#6D4C30;}
	.st20{fill:#422917;}
</style>
<g>
	<defs>
		<path id="SVGID_1_" d="M98.6,168.55c8.64-7.52,16.71-15.54,22.87-22.47c20.43-22.99,32.2-46.76,25.78-68.11
			C138.24,47.97,87.41,19.07,39.59,0C13.67,43.41-8.47,96.4,3.19,125.53c8.31,20.72,32.57,32.6,63.19,38.73
			C75.61,166.11,87.04,167.7,98.6,168.55"/>
	</defs>
	<clipPath id="SVGID_00000147942343394192652730000009097999204332648635_">
		<use xlink:href="#SVGID_1_"  style="overflow:visible;"/>
	</clipPath>
	
		<rect x="-47.6" style="opacity:0.25;clip-path:url(#SVGID_00000147942343394192652730000009097999204332648635_);fill-rule:evenodd;clip-rule:evenodd;fill:#71C1A5;" width="271.76" height="207.72"/>
	<g id="XMLID_2120_" style="clip-path:url(#SVGID_00000147942343394192652730000009097999204332648635_);">
		<path id="XMLID_2166_" class="st2" d="M115.82,71c-0.04-0.07-0.09-0.18-0.15-0.29c-0.02,0.05-0.04,0.1-0.06,0.15
			C115.68,70.9,115.75,70.95,115.82,71z"/>
		<path id="XMLID_2165_" class="st3" d="M47.12,185.78c-0.68,0.88-1.09,1.98-1.09,3.18v4.39c0,2.83,2.24,5.12,5.01,5.12
			c2.77,0,5.01-2.29,5.01-5.12v-3.13l0.64,1.71c0.28,0.79,1.15,1.2,1.93,0.92c0.79-0.28,1.2-1.14,0.92-1.93l-0.84-2.25
			c-0.02-0.07-0.06-0.13-0.09-0.19l0,0c0,0-0.67-1.43-2.12-2.7h-5.2H47.12z"/>
		<path id="XMLID_2164_" class="st4" d="M124.98,185.78h-4.18h-5.2c-1.45,1.27-2.12,2.7-2.12,2.7l0,0
			c-0.03,0.06-0.06,0.12-0.09,0.19l-0.84,2.25c-0.28,0.79,0.13,1.65,0.92,1.93c0.79,0.28,1.65-0.13,1.94-0.92l0.64-1.71v3.13
			c0,2.83,2.24,5.12,5.01,5.12c2.77,0,5.01-2.29,5.01-5.12v-4.39C126.07,187.76,125.66,186.66,124.98,185.78z"/>
		<path id="XMLID_2163_" class="st3" d="M66.86,271.2c0.14-0.02,0.28-0.03,0.42-0.03c0.51-0.03,1.01,0.1,1.51,0.46
			c0.6,0.42,0.89,0.98,0.98,1.57c0.12,0.78-0.15,1.62-0.7,2.33c-0.21,0.27,0.38,1.05,0.53,1.22c1.05,1.11,2.89,1.24,4.31,1.25
			c0.67,0.01,1.34-0.03,2.01-0.09c0.51-0.05,1.01-0.14,1.51-0.24c0.41-0.08,0.72-0.22,1.1-0.35c0.18-0.06,0.42-0.13,0.66-0.14
			c-0.1-0.34-0.21-0.69-0.34-1.02v-6.42h-12V271.2z"/>
		<path id="XMLID_2162_" class="st4" d="M93.16,276.15c-0.13,0.34-0.24,0.68-0.34,1.02c0.27,0,0.57,0.08,0.79,0.14
			c0.38,0.13,0.69,0.27,1.1,0.35c0.5,0.1,1,0.2,1.51,0.24c0.67,0.06,1.34,0.1,2.01,0.09c1.42-0.01,3.27-0.14,4.31-1.25
			c0.14-0.15,0.68-0.87,0.54-1.17c-0.02-0.01-0.04-0.03-0.06-0.04c-0.54-0.71-0.81-1.55-0.7-2.32c0.08-0.6,0.38-1.16,0.98-1.59
			c0.49-0.35,0.99-0.48,1.49-0.46c0.12,0,0.24,0.01,0.36,0.03v-2.95h-12V276.15z"/>
		<path id="XMLID_2161_" class="st5" d="M86.01,182.79v12.48h3.69l1.81,72.98h1.66h12h1.13l1.99-80.26c0.67-1.6,1.05-3.38,1.07-5.26
			H86.01V182.79z"/>
		<path id="XMLID_2160_" class="st6" d="M62.66,182.73c0.02,1.88,0.39,3.65,1.06,5.25l1.99,81.75h1.14h12h1.66l1.81-74.46h3.68
			v-12.48L62.66,182.73z"/>
		<path id="XMLID_2159_" class="st7" d="M81.95,129.18l4.06,10.51v-0.06v-3.65c-0.64-0.01-1.16-0.53-1.16-1.17
			c0-0.65,0.52-1.17,1.16-1.17v-4.47h0.02v-0.59h0c-0.65,0-1.18-0.52-1.18-1.18c0-0.65,0.53-1.17,1.18-1.17h0l0-4.89
			c-0.63-0.02-1.13-0.54-1.13-1.17c0-0.64,0.5-1.15,1.13-1.17v-4.82c0,0-0.01,0-0.01,0c-0.65,0-1.17-0.53-1.17-1.17
			c0-0.65,0.53-1.17,1.17-1.17c0,0,0.01,0,0.01,0l0-1.74c-0.18,0-0.37,0-0.55,0l-4.49,6.6l-2.56-4.09L81.95,129.18L81.95,129.18z"/>
		<path id="XMLID_2158_" class="st8" d="M68.63,114.76c1.57-0.55,3.09-0.97,4.45-1.28C71.72,113.79,70.21,114.21,68.63,114.76z"/>
		<path id="XMLID_2157_" class="st8" d="M59.75,119.69c-2,1.75-3.65,3.92-4.62,6.61C56.1,123.61,57.76,121.44,59.75,119.69z"/>
		<path id="XMLID_2156_" class="st3" d="M86.03,110.1c0.25,0,0.49,0,0.74,0c1.75,0,3.42,0,4.62,0v-0.4
			c-2.8,0.54-5.28-0.26-5.28-0.26v-0.02c-0.48,0.14-2.83,0.74-5.41,0.18v0.5c1.32,0,3.04,0,4.77,0
			C85.66,110.1,85.85,110.1,86.03,110.1z"/>
		<path id="XMLID_2155_" class="st9" d="M86.77,110.1c-0.24,0-0.49,0-0.74,0v1.74c0.64,0,1.17,0.53,1.17,1.17
			c0,0.65-0.52,1.17-1.17,1.17v4.82c0.02,0,0.03-0.01,0.04-0.01c0.65,0,1.17,0.52,1.17,1.18c0,0.65-0.52,1.17-1.17,1.17
			c-0.02,0-0.03,0-0.04,0v4.89c0.65,0,1.17,0.53,1.17,1.17c0,0.65-0.52,1.17-1.17,1.18v0.59h-0.02v4.47c0,0,0.01,0,0.01,0
			c0.65,0,1.18,0.53,1.18,1.18c0,0.65-0.53,1.17-1.18,1.17c-0.01,0-0.01,0-0.01,0v3.65l4.12-10.45l0-0.01L93.58,113l-2.32,3.7
			L86.77,110.1z"/>
		<path id="XMLID_2154_" class="st3" d="M115.82,71c-0.07-0.05-0.14-0.1-0.21-0.14c-0.73,1.62-1.98,2.14-2.05,2.16
			c-0.33,3.64-0.96,7.44-2,11.13c1.48-0.26,4.17-1.43,5.72-6.26c1.15-3.58,0.14-5.55-1.11-6.61c-0.08-0.01-0.17-0.03-0.27-0.1
			C115.9,71.18,115.87,71.11,115.82,71z"/>
		<path id="XMLID_2153_" class="st4" d="M59.32,54.94c0,0.01-0.01,0.02-0.01,0.02c0.02-0.03,0.04-0.05,0.07-0.08
			C59.36,54.9,59.34,54.92,59.32,54.94z"/>
		<path id="XMLID_2152_" class="st4" d="M94.42,92.87l-0.14-0.28c0,0-2.27-5.82-8.1-5.7v11.5c0.01,0,0.02,0,0.03,0v0.06
			C94.94,99.81,94.64,94.29,94.42,92.87z"/>
		<path id="XMLID_2151_" class="st4" d="M113.56,73.02l-3.62-8.66c-2.36-1.73-5.56-3.39-9.81-4.44c0.74,2.21-1.84,2.61-0.25,3
			c1.66,0.42,2.63-1.38,2.63-1.38c0.69,5.8-6.5,6.08-6.5,6.08c-4.04,2.1-7.27,2.63-9.82,2.36v13.74c1.32-0.02,12.07,0.11,12.85,9.82
			l0.09,0.02c0.28,4.51-0.2,7.8-1.1,10.19c7.08-4.05,11.27-11.55,13.54-19.61C112.6,80.46,113.24,76.66,113.56,73.02L113.56,73.02z"
			/>
		<path id="XMLID_2150_" class="st3" d="M86.1,86.89l0-0.09c-5.86-0.15-8.13,5.7-8.13,5.7s-1.86,7.51,8.22,5.9v-11.5
			C86.16,86.89,86.13,86.89,86.1,86.89z"/>
		<path id="XMLID_2149_" class="st3" d="M73.2,93.52c0.76-10.12,12.25-9.82,12.89-9.79c0.02,0,0.05,0,0.09,0V69.99
			c-5.64-0.6-7.87-5.13-7.87-5.13c-3.97,0.61-5.76-3.12-6.44-5.13c-4.44,0.99-7.79,2.62-10.24,4.35l-4.34,8.94
			c0,0-0.08-0.04-0.2-0.12c-0.33-0.23-0.98-0.82-1.41-1.94c-0.03,0.12-0.04,0.2-0.01,0.22c-0.19,0.12-0.35,0.13-0.47,0.06
			c-1.27,1.06-2.32,3.02-1.16,6.65c1.46,4.53,3.92,5.84,5.43,6.2c2.73,8.46,7.63,16.37,15.07,20.24
			C73.49,101.9,72.89,98.44,73.2,93.52z"/>
		<path id="XMLID_2148_" class="st10" d="M55.71,70.96c0.42,1.12,1.08,1.71,1.41,1.94c0.12,0.08,0.2,0.12,0.2,0.12l4.34-8.94
			C57.56,66.96,55.92,70.11,55.71,70.96z"/>
		<path id="XMLID_2147_" class="st11" d="M113.56,73.02c0.06-0.03,1.31-0.54,2.05-2.16c0.02-0.05,0.04-0.1,0.06-0.15
			c-0.56-1.06-2.22-3.77-5.73-6.35L113.56,73.02L113.56,73.02z"/>
		<path id="XMLID_2146_" class="st11" d="M87.25,120.18c0-0.65-0.52-1.18-1.17-1.18v2.35C86.72,121.35,87.25,120.82,87.25,120.18z"
			/>
		<path id="XMLID_2145_" class="st8" d="M86.07,119c-0.02,0-0.03,0.01-0.04,0.01c-0.63,0.02-1.13,0.54-1.13,1.17
			c0,0.63,0.5,1.15,1.13,1.17c0.02,0,0.03,0,0.04,0V119z"/>
		<path id="XMLID_2144_" class="st8" d="M55.69,71.18c-0.03-0.02-0.02-0.1,0.01-0.22c0.22-0.85,1.85-4,5.94-6.88
			c2.45-1.73,5.8-3.36,10.24-4.35c-0.24-0.72-0.34-1.22-0.34-1.22c-0.97-3.87,4.84-3.73,4.84-3.73c1.66-3.59,7.46-0.55,7.46-0.55
			c0.6-0.74,1.26-1.22,1.95-1.52v-5.99c-0.45-0.06-0.71-0.09-0.71-0.09v-0.06c-3.32,0.45-19.69,2.88-25.71,8.33
			c-0.02,0.03-0.04,0.05-0.07,0.08c-1.35,1.5-2.37,3.26-2.88,5.34c-1.44,5.86-2.05,10.44-1.21,10.93
			C55.35,71.31,55.5,71.3,55.69,71.18z"/>
		<path id="XMLID_2143_" class="st12" d="M85.69,34.87v0.05c1.78-0.18,4.19,0.26,6.71,1.03c0.07-0.28,0.11-0.57,0.11-0.86
			c0-2.65-2.85-4.79-6.36-4.79c-3.51,0-6.36,2.14-6.36,4.79c0,0.25,0.04,0.49,0.08,0.73C82.26,35.16,84.38,34.76,85.69,34.87z"/>
		<path id="XMLID_2142_" class="st8" d="M85.09,46.56V35.01c0.19-0.04,0.39-0.07,0.6-0.09v-0.05c-1.3-0.11-3.43,0.29-5.82,0.96
			c-5.72,1.61-12.96,4.81-14.13,6.5c-1.66,2.4-7.33,13.55-7.33,13.55c0.27-0.32,0.58-0.64,0.91-0.95c0.02-0.02,0.04-0.04,0.05-0.05
			C65.39,49.44,81.76,47.01,85.09,46.56z"/>
		<path id="XMLID_2141_" class="st13" d="M85.8,46.71v5.99c3.29-1.41,7.17,1.52,7.17,1.52c6.91-0.41,5.94,2.9,7.05,5.39
			c0.04,0.11,0.08,0.21,0.11,0.31c4.25,1.05,7.45,2.7,9.81,4.44c3.51,2.58,5.17,5.29,5.73,6.35c0.06,0.11,0.11,0.21,0.15,0.29
			c0.05,0.11,0.08,0.18,0.08,0.18c0.1,0.07,0.19,0.09,0.27,0.1c1.08,0.1,0.52-4.71-0.99-10.97c-0.64-2.65-2.07-4.8-3.97-6.53
			c0.7,1.34,1.15,2.24,1.15,2.24C107.42,49.93,89.56,47.23,85.8,46.71z"/>
		<path id="XMLID_2140_" class="st13" d="M85.69,34.93c-0.21,0.02-0.41,0.05-0.6,0.09v11.55v0.06c0,0,0.26,0.03,0.71,0.09
			c3.76,0.51,21.63,3.22,26.56,9.31c0,0-0.46-0.9-1.15-2.24c-1.75-3.39-4.98-9.59-6.17-11.3c-1.1-1.59-7.12-4.83-12.64-6.52
			C89.88,35.19,87.47,34.74,85.69,34.93z"/>
		<path id="XMLID_2139_" class="st14" d="M96.01,67.63c0,0,7.19-0.28,6.5-6.08c0,0-0.97,1.8-2.63,1.38c-1.58-0.4,0.99-0.8,0.25-3
			c-0.03-0.1-0.07-0.2-0.11-0.31c-1.11-2.49-0.14-5.81-7.05-5.39c0,0-3.87-2.92-7.17-1.52c-0.69,0.3-1.36,0.77-1.95,1.52
			c0,0-5.81-3.04-7.46,0.55c0,0-5.81-0.14-4.84,3.73c0,0,0.1,0.51,0.34,1.22c0.67,2.02,2.47,5.74,6.44,5.13c0,0,2.23,4.53,7.87,5.13
			C88.73,70.26,91.97,69.74,96.01,67.63z"/>
		<path id="XMLID_2138_" class="st14" d="M86.11,109.42V98.44c0.04,0.01,0.07,0.01,0.1,0.01v-0.06c-0.01,0-0.02,0-0.03,0
			c-10.08,1.61-8.22-5.9-8.22-5.9s2.28-5.85,8.13-5.7l-0.04-3.07c0,0,0.01,0,0.04,0c-0.64-0.03-12.13-0.33-12.89,9.79
			c-0.31,4.92,0.29,8.37,1.36,10.81c1.49,3.38,3.9,4.78,6.14,5.27C83.28,110.16,85.63,109.56,86.11,109.42z"/>
		<path id="XMLID_2137_" class="st15" d="M99.13,93.57l-0.09-0.02c-0.78-9.71-11.54-9.84-12.85-9.82c-0.04,0-0.07,0-0.09,0
			c-0.03,0-0.04,0-0.04,0l0.04,3.07l0,0.09c0.03,0,0.06,0,0.09,0c5.83-0.12,8.1,5.7,8.1,5.7l0.14,0.28
			c0.22,1.43,0.51,6.95-8.21,5.58c-0.04,0-0.07-0.01-0.1-0.01v10.98v0.02c0,0,2.48,0.8,5.28,0.26c2.45-0.47,5.13-1.97,6.64-5.93
			C98.93,101.37,99.4,98.08,99.13,93.57z"/>
		<path id="XMLID_2136_" class="st11" d="M87.19,113.01c0-0.65-0.52-1.17-1.17-1.17c0,0-0.01,0-0.01,0v2.35c0,0,0.01,0,0.01,0
			C86.67,114.18,87.19,113.66,87.19,113.01z"/>
		<path id="XMLID_2135_" class="st8" d="M84.84,113.01c0,0.65,0.53,1.17,1.17,1.17v-2.35C85.37,111.84,84.84,112.36,84.84,113.01z"
			/>
		<path id="XMLID_2134_" class="st11" d="M87.2,127.41c0-0.65-0.52-1.17-1.17-1.17h0v2.35h0C86.68,128.58,87.2,128.06,87.2,127.41z"
			/>
		<path id="XMLID_2133_" class="st8" d="M84.85,127.41c0,0.65,0.53,1.18,1.18,1.18v-2.35C85.38,126.24,84.85,126.76,84.85,127.41z"
			/>
		<path id="XMLID_2132_" class="st11" d="M87.2,134.82c0-0.65-0.53-1.18-1.18-1.18v2.35C86.67,135.99,87.2,135.46,87.2,134.82z"/>
		<path id="XMLID_2131_" class="st8" d="M86.03,133.64c-0.01,0-0.01,0-0.01,0c-0.64,0-1.16,0.53-1.16,1.17
			c0,0.64,0.52,1.16,1.16,1.17c0,0,0.01,0,0.01,0V133.64z"/>
		<path id="XMLID_2130_" class="st16" d="M86.01,182.73v-8.13v-34.9l-4.06-10.51l0-0.01l-3.53-16.56c0,0-0.02,0-0.06,0
			c-0.02,0-0.04,0-0.06,0.01c-0.03,0-0.06,0-0.1,0.01c-0.04,0-0.1,0.01-0.16,0.02c-0.04,0-0.07,0-0.11,0.01
			c-0.07,0.01-0.15,0.01-0.23,0.02c-0.05,0.01-0.08,0.01-0.13,0.01c-0.09,0.01-0.2,0.02-0.3,0.04c-0.05,0.01-0.09,0.01-0.14,0.02
			c-0.12,0.01-0.24,0.03-0.38,0.05c-0.05,0.01-0.1,0.02-0.15,0.02c-0.14,0.02-0.29,0.04-0.45,0.07c-0.05,0.01-0.1,0.02-0.15,0.02
			c-0.17,0.02-0.34,0.05-0.51,0.08c-0.05,0.01-0.1,0.02-0.15,0.03c-0.19,0.04-0.38,0.07-0.58,0.11c-0.04,0.01-0.09,0.02-0.13,0.02
			c-0.22,0.04-0.44,0.08-0.67,0.13c-0.03,0.01-0.06,0.02-0.08,0.02c-0.25,0.05-0.51,0.11-0.77,0.17c0,0-0.01,0-0.01,0
			c-1.35,0.31-2.87,0.73-4.45,1.28c-1.37,0.48-2.78,1.06-4.16,1.77c-0.01,0-0.02,0.01-0.03,0.02c-0.31,0.16-0.62,0.33-0.93,0.5
			c-0.02,0.01-0.05,0.02-0.07,0.04c-0.3,0.17-0.6,0.35-0.9,0.54c-0.03,0.01-0.05,0.03-0.08,0.05c-0.29,0.19-0.58,0.38-0.87,0.58
			c-0.03,0.02-0.05,0.03-0.08,0.05c-0.29,0.2-0.57,0.41-0.85,0.63c-0.02,0.01-0.04,0.03-0.06,0.05c-0.28,0.22-0.56,0.45-0.83,0.69
			c-0.01,0.01-0.01,0.01-0.02,0.02c-1.99,1.75-3.65,3.92-4.62,6.61h-0.01c-0.01,0.02-0.02,0.05-0.02,0.07c0,0,0,0,0,0
			c-0.06,0.17-0.11,0.33-0.16,0.51c-0.06,0.18-0.12,0.37-0.17,0.56c-0.05,0.18-0.1,0.37-0.14,0.55v0
			c-6.34,22.5-8.07,57.78-8.07,57.78h0.56h4.18h5.2h0.23c2.13-33.93,5.95-42.71,5.95-42.71l-0.44,39.66l0.42,0l23.35,0.06V182.73z"
			/>
		<path id="XMLID_2129_" class="st17" d="M124.98,185.78h0.55c0,0-1.73-35.27-8.07-57.78c-0.13-0.56-0.29-1.1-0.47-1.63
			c-0.01-0.03-0.02-0.05-0.02-0.08h-0.01c-4.21-11.71-21.4-13.52-23.13-13.68l0,0L93.58,113l-3.45,16.17l0,0.01l-4.12,10.45v0.06
			v34.9v8.13h23.34h0.48l-0.44-39.66c0,0,3.82,8.78,5.95,42.71h0.25h5.2H124.98z"/>
		<path id="XMLID_2128_" class="st12" d="M85.48,110.1c-1.74,0-3.45,0-4.77,0c-1.12,0-1.96,0-2.29,0v2.51l2.56,4.09L85.48,110.1z"/>
		<path id="XMLID_2127_" class="st7" d="M91.26,116.7l2.32-3.7l0.23-0.38l0.01-0.01v-2.51h-0.1c0,0-0.2,0-0.54,0c0,0-0.7,0-1.8,0
			c-1.2,0-2.87,0-4.62,0L91.26,116.7z"/>
		<polygon id="XMLID_2126_" class="st18" points="92.25,284.32 92.25,283.95 91.98,283.95 91.98,285.96 121.47,285.96 
			121.47,283.95 121.47,283.95 121.47,284.32 		"/>
		<path id="XMLID_2125_" class="st19" d="M107.89,272.62c1.62,1.16,8.04,3.14,8.04,3.14c0.42,0.13,0.81,0.26,1.17,0.41
			c0.26,0.13,1.34,0.81,1,2.45c-0.38,1.82-4.91,1.25-5.88,1.09c-2.83-0.46-5.54-1.59-7.91-3.21c-0.42-0.29-0.83-0.59-1.22-0.91
			c0.13,0.3-0.4,1.02-0.54,1.17c-1.05,1.11-2.89,1.24-4.31,1.25c-0.67,0.01-1.34-0.03-2.01-0.09c-0.51-0.05-1.01-0.14-1.51-0.24
			c-0.41-0.08-0.72-0.22-1.1-0.35c-0.21-0.07-0.52-0.15-0.79-0.14c-0.32,0-0.58,0.13-0.58,0.53v2.65v3.61v0.36h29.23v-0.36v-2.85
			c0.02-1.57-1.05-4.01-5.49-5.35c0,0-6.42-1.98-8.04-3.14c-0.84-0.59-1.79-1.26-2.77-1.42c-0.12-0.02-0.24-0.03-0.36-0.03
			C105.9,271.21,106.97,271.96,107.89,272.62z"/>
		<path id="XMLID_2124_" class="st18" d="M112.22,279.71c0.97,0.16,5.5,0.73,5.88-1.09c0.34-1.64-0.74-2.32-1-2.45
			c-0.36-0.15-0.75-0.29-1.17-0.41c0,0-6.42-1.98-8.04-3.14c-0.92-0.66-2-1.41-3.09-1.45c-0.5-0.02-0.99,0.11-1.49,0.46
			c-0.6,0.43-0.9,0.99-0.98,1.59c-0.11,0.77,0.16,1.61,0.7,2.32c0.02,0.02,0.04,0.03,0.06,0.04c0.4,0.32,0.8,0.63,1.22,0.91
			C106.68,278.12,109.39,279.24,112.22,279.71z"/>
		<polygon id="XMLID_2123_" class="st20" points="50.68,284.32 50.68,283.95 50.55,283.95 50.55,285.96 80.04,285.96 80.04,283.95 
			79.91,283.95 79.91,284.32 		"/>
		<path id="XMLID_2122_" class="st17" d="M77.44,277.66c-0.5,0.1-1,0.2-1.51,0.24c-0.67,0.06-1.33,0.1-2.01,0.09
			c-1.42-0.01-3.27-0.14-4.31-1.25c-0.15-0.16-0.74-0.94-0.53-1.22c0.55-0.71,0.81-1.56,0.7-2.33c-0.09-0.59-0.38-1.15-0.98-1.57
			c-0.5-0.36-1.01-0.48-1.51-0.46c0.46,0,0.92,0.13,1.38,0.46c1.38,0.99,1.24,2.65,0.29,3.91c-0.42,0.34-0.84,0.66-1.28,0.96
			c-2.36,1.63-5.07,2.75-7.91,3.21c-0.97,0.16-5.5,0.73-5.88-1.09c-0.28-1.34,0.38-2.02,0.78-2.31c-3.17,1.39-3.99,3.42-3.97,4.8
			v2.85v0.36h29.23v-0.36v-3.61v-2.65c0-0.46-0.34-0.56-0.71-0.53c-0.24,0.02-0.48,0.08-0.66,0.14
			C78.16,277.44,77.84,277.59,77.44,277.66z"/>
		<path id="XMLID_2121_" class="st20" d="M53.87,278.62c0.38,1.82,4.91,1.25,5.88,1.09c2.83-0.46,5.54-1.59,7.91-3.21
			c0.44-0.3,0.87-0.62,1.28-0.96c0.96-1.25,1.09-2.92-0.29-3.91c-0.45-0.33-0.92-0.45-1.38-0.46c-0.14,0-0.28,0.01-0.42,0.03
			c-0.98,0.15-1.94,0.82-2.77,1.42c-1.62,1.16-8.04,3.14-8.04,3.14c-0.42,0.13-0.81,0.26-1.17,0.41c-0.05,0.02-0.13,0.07-0.22,0.14
			C54.25,276.59,53.6,277.28,53.87,278.62z"/>
	</g>
</g>
</svg>
