<?xml version="1.0" encoding="utf-8"?>
<!-- Generator: Adobe Illustrator 27.5.0, SVG Export Plug-In . SVG Version: 6.00 Build 0)  -->
<svg version="1.1" id="Calque_1" xmlns="http://www.w3.org/2000/svg" xmlns:xlink="http://www.w3.org/1999/xlink" x="0px" y="0px"
	 viewBox="0 0 149.01 168.55" style="enable-background:new 0 0 149.01 168.55;" xml:space="preserve">
<style type="text/css">
	
		.st0{opacity:0.25;clip-path:url(#SVGID_00000105385273206714812490000004207781783133405584_);fill-rule:evenodd;clip-rule:evenodd;fill:#71C1A5;}
	.st1{clip-path:url(#SVGID_00000105385273206714812490000004207781783133405584_);}
	.st2{fill:#E1AD82;}
	.st3{fill:#633F21;}
	.st4{fill:#482E19;}
	.st5{fill:#E4BA99;}
	.st6{fill:#020203;}
	.st7{fill:#303031;}
	.st8{fill:#DDDADB;}
	.st9{fill:#EDEBED;}
	.st10{fill:#2F2F30;}
	.st11{fill:#F9BB68;}
	.st12{fill:#F7AB40;}
	.st13{fill:#444343;}
	.st14{fill:#848383;}
	.st15{fill:#A3A1A2;}
	.st16{fill:#777474;}
</style>
<g>
	<defs>
		<path id="SVGID_1_" d="M98.6,168.55c8.64-7.52,16.71-15.54,22.87-22.47c20.43-22.99,32.2-46.76,25.78-68.11
			C138.24,47.97,87.41,19.07,39.59,0C13.67,43.41-8.47,96.4,3.19,125.53c8.31,20.72,32.57,32.6,63.19,38.73
			C75.61,166.11,87.04,167.7,98.6,168.55"/>
	</defs>
	<clipPath id="SVGID_00000081619261528711103630000002104721879455552701_">
		<use xlink:href="#SVGID_1_"  style="overflow:visible;"/>
	</clipPath>
	
		<rect x="-47.6" style="opacity:0.25;clip-path:url(#SVGID_00000081619261528711103630000002104721879455552701_);fill-rule:evenodd;clip-rule:evenodd;fill:#71C1A5;" width="271.76" height="207.72"/>
	<g style="clip-path:url(#SVGID_00000081619261528711103630000002104721879455552701_);">
		<g id="XMLID_2167_">
			<path id="XMLID_2225_" class="st2" d="M79.39,112.57h7.31v15.73H57.86C57.86,115.38,79.39,112.57,79.39,112.57z"/>
			<path id="XMLID_2223_" class="st3" d="M108.96,180.78v-7.62H63.2v7.62l0,0c0,6.64,5.38,12.02,12.03,12.02h21.72
				C103.58,192.81,108.96,187.42,108.96,180.78L108.96,180.78z"/>
			<path id="XMLID_2222_" class="st4" d="M86.08,173.16H63.2v7.62c0,6.64,5.38,12.02,12.03,12.02h10.86V173.16z"/>
			<path id="XMLID_2218_" class="st2" d="M61.67,80c2.09,6.51,6.38,5.96,6.38,5.96l-2.96-13.32C65.09,72.64,59.58,73.49,61.67,80z"
				/>
			<path id="XMLID_2217_" class="st2" d="M112.61,72.64l-2.96,13.32c0,0,4.29,0.55,6.38-5.96
				C118.12,73.49,112.61,72.64,112.61,72.64z"/>
			<path id="XMLID_2216_" class="st2" d="M56.81,80c2.09,6.51,6.38,5.96,6.38,5.96l-2.96-13.32C60.23,72.64,54.71,73.49,56.81,80z"
				/>
			<rect id="XMLID_2215_" x="80.96" y="102.5" class="st2" width="10.15" height="10.14"/>
			<path id="XMLID_2214_" class="st5" d="M85.95,41.72c-15.21,0-27.53,12.32-27.53,27.52c0,15.2,8.97,38.34,27.53,38.34
				c18.5,0,27.53-23.14,27.53-38.34C113.48,54.04,101.15,41.72,85.95,41.72z"/>
			<path id="XMLID_2213_" class="st2" d="M58.42,69.24c0,15.2,9.11,38.34,27.53,38.34V41.72C70.74,41.72,58.42,54.04,58.42,69.24z"
				/>
			<path id="XMLID_2212_" class="st5" d="M93.39,112.57h-7.21v15.73h28.44C114.62,115.38,93.39,112.57,93.39,112.57z"/>
			<g id="XMLID_2205_">
				<path id="XMLID_2211_" class="st6" d="M81.2,82.41c0,0.63,0.51,1.15,1.15,1.15h3.28v-2.3h-3.28
					C81.72,81.26,81.2,81.78,81.2,82.41z"/>
				<path id="XMLID_2210_" class="st7" d="M88.75,81.26h-3.12v2.3h3.12c0.64,0,1.15-0.52,1.15-1.15
					C89.9,81.78,89.39,81.26,88.75,81.26z"/>
				<circle id="XMLID_2209_" class="st6" cx="74.2" cy="81.26" r="8.1"/>
				<path id="XMLID_2208_" class="st8" d="M74.2,75.35c-3.38,0-6.11,2.73-6.11,6.11c0,3.37,2.73,6.11,6.11,6.11
					c3.37,0,6.11-2.74,6.11-6.11C80.31,78.08,77.58,75.35,74.2,75.35z"/>
				<path id="XMLID_2207_" class="st7" d="M96.71,73.16c-4.47,0-8.1,3.63-8.1,8.1c0,4.48,3.63,8.1,8.1,8.1
					c4.48,0,8.11-3.63,8.11-8.1C104.82,76.79,101.19,73.16,96.71,73.16z"/>
				<path id="XMLID_2206_" class="st9" d="M96.71,75.35c-3.37,0-6.11,2.73-6.11,6.11c0,3.37,2.74,6.11,6.11,6.11
					c3.38,0,6.11-2.74,6.11-6.11C102.82,78.08,100.09,75.35,96.71,75.35z"/>
			</g>
			<path id="XMLID_2204_" class="st10" d="M58.97,77.06c0.17-0.52,0.87-2.95,0.87-2.95l0.17-2.26l-1.91-0.87
				C57.93,73.07,58.8,77.58,58.97,77.06z"/>
			<path id="XMLID_2203_" class="st11" d="M96.83,44.24c0,0-7.01-2.96-10.89-2.52V56.4v10.24c0,0,7.93-5.91,9.84-15.11
				c0,0,10.59,9.38,12.33,21.19l4.43,5.2C112.55,77.92,114.89,51.36,96.83,44.24z"/>
			<path id="XMLID_2202_" class="st12" d="M55.85,66.47l-0.87,5.73c0,0,18.87,0.87,30.97-5.56V40.07
				C85.95,40.07,60.71,39.03,55.85,66.47z"/>
			<path id="XMLID_2201_" class="st6" d="M114.65,47.28c-12.33-11.3-26.9-7.71-26.9-7.71c31.35,13.19,28.37,36.83,28.37,36.83
				s2.81,0.69,2.46-4.97c-0.16-2.6,2.23-7.02,2.23-7.02S126.98,58.59,114.65,47.28z"/>
			<path id="XMLID_2200_" class="st13" d="M104.97,45.99c-15.05-9.06-22.75-6.08-22.75-6.08s-11.85,0.86-10.39,3.77
				c0,0,41.36,5.08,40.72,34.24l3.57-1.52C116.34,74.65,118.63,54.22,104.97,45.99z"/>
			<path id="XMLID_2199_" class="st6" d="M70.96,43.62c0,0,13.23,2.74,14.97,3.78l-0.13-7.94C85.81,39.45,72.69,39.1,70.96,43.62z"
				/>
			<g id="XMLID_2194_">
				<g id="XMLID_2195_">
					<path id="XMLID_2198_" class="st5" d="M116.3,192.4c0,2.68,2.13,4.86,4.76,4.86l0,0c2.63,0,4.76-2.18,4.76-4.86v-4.17
						c0-2.68-2.13-4.86-4.76-4.86l0,0c-2.63,0-4.76,2.18-4.76,4.86V192.4z"/>
					<path id="XMLID_2197_" class="st5" d="M112.98,190.09c-0.27,0.75,0.13,1.57,0.87,1.84l0,0c0.75,0.27,1.57-0.12,1.84-0.87
						l0.8-2.14c0.27-0.75-0.12-1.57-0.87-1.84l0,0c-0.75-0.26-1.57,0.13-1.84,0.87L112.98,190.09z"/>
					<path id="XMLID_2196_" class="st5" d="M113.86,187.77c0,0,2.08-4.49,6.95-4.38v5.45h-4.37L113.86,187.77z"/>
				</g>
			</g>
			<path id="XMLID_2193_" class="st5" d="M110.47,140.85l2.43-18.41c0,0,11.51,14.67,11.51,62.32h-7.06
				C117.34,184.77,117.44,156.55,110.47,140.85z"/>
			<g id="XMLID_2188_">
				<g id="XMLID_2189_">
					<path id="XMLID_2192_" class="st2" d="M56.18,192.4c0,2.68-2.13,4.86-4.76,4.86l0,0c-2.63,0-4.76-2.18-4.76-4.86v-4.17
						c0-2.68,2.13-4.86,4.76-4.86l0,0c2.63,0,4.76,2.18,4.76,4.86V192.4z"/>
					<path id="XMLID_2191_" class="st2" d="M59.5,190.09c0.27,0.75-0.12,1.57-0.87,1.84l0,0c-0.75,0.27-1.57-0.12-1.84-0.87
						l-0.8-2.14c-0.27-0.75,0.12-1.57,0.87-1.84l0,0c0.75-0.26,1.57,0.13,1.84,0.87L59.5,190.09z"/>
					<path id="XMLID_2190_" class="st2" d="M58.62,187.77c0,0-2.07-4.49-6.95-4.38v5.45h4.37L58.62,187.77z"/>
				</g>
			</g>
			<path id="XMLID_2187_" class="st2" d="M62.01,140.85l-2.43-18.41c0,0-11.51,14.67-11.51,62.32h7.07
				C55.14,184.77,55.04,156.55,62.01,140.85z"/>
			<path id="XMLID_2186_" class="st14" d="M56.18,182.13h-9.63c0.11-33.47,9.53-54.56,9.53-54.56c1.13-2.98,2.9-5.36,4.93-7.24
				c0.65-0.67,1.38-1.32,2.24-1.91c1.08-0.75,2.21-1.41,3.34-1.99c2.47-1.29,4.82-2.07,6.46-2.52c2.54-0.72,3.62-1.26,6.73-1.26
				c0,0,1.8,6.44,6.51,6.44v8.55v0.81V178H61.52l2.13-37.71C63.65,140.29,56.96,152.62,56.18,182.13z"/>
			<path id="XMLID_2185_" class="st7" d="M86.35,117.59v2.11c0,0-7.37,0.24-7.37-7.15l2.2-0.11
				C81.18,112.44,81.84,117.59,86.35,117.59z"/>
			<path id="XMLID_2184_" class="st15" d="M116.3,182.13h9.63c-0.1-33.47-9.53-54.56-9.53-54.56c-1.13-2.98-2.9-5.36-4.93-7.24
				c-0.65-0.67-1.38-1.32-2.24-1.91c-1.08-0.75-2.21-1.41-3.34-1.99c-2.47-1.29-4.82-2.07-6.46-2.52c-2.53-0.72-3.62-1.26-6.73-1.26
				c0,0-1.8,6.44-6.51,6.44v8.55v0.81V178h24.77l-2.13-37.71C108.83,140.29,115.52,152.62,116.3,182.13z"/>
			<path id="XMLID_2183_" class="st16" d="M86.13,117.59v2.11c0,0,7.36,0.24,7.36-7.15l-2.19-0.11
				C91.31,112.44,90.64,117.59,86.13,117.59z"/>
		</g>
	</g>
</g>
</svg>
